<svg xmlns="http://www.w3.org/2000/svg" width="60" height="49" viewBox="0 0 62 49" fill="none">
<path id="Vector" d="M57.6357 19.5913L48.4071 12.8204L34.1457 2.18031C31.8683 0.487422 28.872 0.487422 26.5953 2.18031L12.453 12.6992C12.453 12.6992 12.3332 12.6992 12.3332 12.8197L2.62524 20.0741C-0.610756 22.4922 -0.610756 27.3284 2.62524 29.7465L3.10454 30.1095L5.02245 31.5606L5.38193 31.8024L26.5953 47.641C28.8727 49.3339 31.869 49.3339 34.1457 47.641L37.2619 45.3441H37.3817L57.6364 30.2307C61.1121 27.3291 60.9923 22.1299 57.6364 19.5906L57.6357 19.5913Z" fill="url(#paint0_linear_4035_4441)"/>
<g id="Clip path group">
<mask id="mask0_4035_4441" style="mask-type:luminance" maskUnits="userSpaceOnUse" x="12" y="10" width="37" height="26">
<g id="clippath">
<path id="Vector_2" d="M48.1973 10.5103H12.1973V35.7106H48.1973V10.5103Z" fill="white"/>
</g>
</mask>
<g mask="url(#mask0_4035_4441)">
<g id="Group">
<path id="Vector_3" d="M48.1974 24.6999C48.2532 23.7315 47.4332 23.1575 47.4332 23.1575L31.3682 10.9227C29.8627 9.99472 28.9145 10.9227 28.9145 10.9227L12.9108 23.3316C12.3423 23.836 12.1807 24.3752 12.1974 24.8448V28.9035C12.2086 29.704 12.7436 30.3303 12.7436 30.3303C12.7436 30.3303 17.428 33.8672 19.1007 35.1428C20.4389 36.3606 21.7772 35.085 21.7772 35.085L28.8031 29.6343C30.1971 28.6485 31.2567 29.6343 31.2567 29.6343L38.0596 34.9687C39.8438 36.3021 41.1821 35.085 41.1821 35.085L47.4276 30.3303C47.985 29.7332 48.1807 29.2052 48.1919 28.7586V24.6999H48.1974Z" fill="#3721A6"/>
<path id="Vector_4" d="M12.9117 23.3306L28.9154 10.9217C28.9154 10.9217 29.8635 9.99375 31.369 10.9217L47.4285 23.1565C47.4285 23.1565 49.1569 24.3742 47.4285 26.2295L41.1829 30.9842C41.1829 30.9842 39.8446 32.2019 38.0605 30.8685L31.2576 25.5342C31.2576 25.5342 30.1979 24.5484 28.8039 25.5342L21.7781 30.9849C21.7781 30.9849 20.4398 32.2605 19.1015 31.0427C17.4288 29.7671 12.7445 26.2301 12.7445 26.2301C12.7445 26.2301 11.4062 24.6647 12.9117 23.3306Z" fill="white"/>
</g>
</g>
</g>

<defs>
<linearGradient id="paint0_linear_4035_4441" x1="30.1977" y1="52.5106" x2="30.1977" y2="-3.28918" gradientUnits="userSpaceOnUse">
<stop stop-color="#362AB5"/>
<stop offset="0.19" stop-color="#3021D1"/>
<stop offset="0.47" stop-color="#5C3BFF"/>
<stop offset="0.83" stop-color="#8243FF"/>
<stop offset="1" stop-color="#884DFF"/>
</linearGradient>
<clipPath id="clip0_4035_4441">
<rect width="224" height="48" fill="white" transform="translate(0 0.910645)"/>
</clipPath>
</defs>
</svg>